<svg version="1.1" xmlns="http://www.w3.org/2000/svg" viewBox="-3042.181692406595 -1669.575 6219.881692406595 3042.15"><desc>Created with Snap</desc><defs></defs><g><g transform="matrix(31.9537,0,0,31.9537,-3134.763,-1762.1963)"><g><path d="M74.265,60.41c0.964,2.929,1.401,5.966,1.261,9.015c2.584-0.989,5.013-2.49,7.095-4.572c0.244-0.244,0.41-0.527,0.637-0.78   c0.018-0.341,0.105-0.659,0.105-1.004c0-2.924-0.646-5.691-1.764-8.203C79.522,57.139,77.045,59.022,74.265,60.41z" style="" fill="#0560af"></path><path d="M54.863,81.605c2.509,1.112,5.276,1.759,8.2,1.759c0.349,0,0.664-0.085,1.004-0.103c0.253-0.227,0.541-0.393,0.781-0.637   c2.08-2.085,3.585-4.516,4.572-7.104c-3.049,0.14-6.086-0.292-9.01-1.257C59.022,77.049,57.137,79.528,54.863,81.605z" style="" fill="#0560af"></path><path d="M40.588,74.265c-2.925,0.965-5.965,1.396-9.013,1.257c0.988,2.588,2.49,5.023,4.573,7.104   c0.242,0.244,0.528,0.41,0.779,0.637c0.339,0.018,0.661,0.103,1.003,0.103c2.926,0,5.691-0.646,8.202-1.759   C43.861,79.528,41.976,77.049,40.588,74.265z" style="" fill="#0560af"></path><path d="M26.731,60.41c-2.781-1.388-5.26-3.271-7.337-5.545c-1.112,2.512-1.758,5.279-1.758,8.203c0,0.345,0.085,0.663,0.1,1.004   c0.229,0.253,0.395,0.536,0.639,0.78c2.082,2.082,4.515,3.583,7.098,4.572C25.333,66.376,25.767,63.339,26.731,60.41z" style="" fill="#0560af"></path><path d="M26.731,40.592c-0.964-2.929-1.398-5.966-1.259-9.016c-2.583,0.989-5.014,2.491-7.098,4.572   c-0.244,0.245-0.41,0.528-0.639,0.781c-0.015,0.341-0.1,0.659-0.1,1.004c0,2.924,0.646,5.69,1.76,8.205   C21.471,43.863,23.95,41.979,26.731,40.592z" style="" fill="#0560af"></path><path d="M46.132,19.397c-2.511-1.114-5.275-1.76-8.202-1.76c-0.342,0-0.664,0.084-1.003,0.102   c-0.251,0.228-0.537,0.393-0.779,0.638c-2.083,2.08-3.585,4.515-4.573,7.103c3.048-0.14,6.088,0.293,9.013,1.257   C41.976,23.952,43.861,21.475,46.132,19.397z" style="" fill="#0560af"></path><path d="M60.41,26.736c2.924-0.964,5.961-1.396,9.01-1.257c-0.99-2.588-2.492-5.017-4.572-7.103   c-0.24-0.245-0.528-0.41-0.781-0.638c-0.34-0.018-0.659-0.102-1.004-0.102c-2.924,0-5.691,0.646-8.2,1.76   C57.137,21.475,59.022,23.952,60.41,26.736z" style="" fill="#0560af"></path><path d="M82.621,36.148c-2.082-2.081-4.511-3.583-7.095-4.572c0.14,3.05-0.297,6.087-1.261,9.016   c2.78,1.388,5.257,3.271,7.334,5.547c1.117-2.515,1.764-5.281,1.764-8.205c0-0.345-0.088-0.663-0.105-1.004   C83.031,36.677,82.865,36.394,82.621,36.148z" style="" fill="#0560af"></path><path d="M58.228,63.068c0-0.166-0.048-0.319-0.052-0.484c-1.061-0.21-2.09-0.498-3.099-0.834c-0.462,0.921-0.89,1.851-1.469,2.719   c0.113,0.122,0.19,0.267,0.309,0.384c1.143,1.14,2.404,2.069,3.718,2.881C57.993,66.228,58.228,64.683,58.228,63.068z" style="" fill="#0560af"></path><path d="M43.362,67.733c1.313-0.812,2.574-1.741,3.715-2.881c0.12-0.117,0.199-0.262,0.312-0.384   c-0.581-0.868-1.008-1.798-1.471-2.719c-1.008,0.336-2.038,0.624-3.1,0.834c-0.002,0.165-0.048,0.318-0.048,0.484   C42.771,64.683,43.006,66.228,43.362,67.733z" style="" fill="#0560af"></path><path d="M36.148,53.922c-1.139,1.14-2.068,2.4-2.88,3.717c1.503,0.355,3.051,0.59,4.663,0.59c0.166,0,0.318-0.044,0.484-0.048   c0.209-1.06,0.495-2.094,0.833-3.102c-0.918-0.463-1.848-0.886-2.716-1.471C36.411,53.726,36.269,53.805,36.148,53.922z" style="" fill="#0560af"></path><path d="M38.415,42.821c-0.166-0.006-0.319-0.05-0.484-0.05c-1.612,0-3.159,0.236-4.663,0.591c0.812,1.318,1.739,2.578,2.88,3.717   c0.12,0.118,0.262,0.196,0.384,0.314c0.868-0.583,1.797-1.008,2.716-1.471C38.91,44.916,38.625,43.881,38.415,42.821z" style="" fill="#0560af"></path><path d="M42.771,37.934c0,0.166,0.046,0.318,0.048,0.484c1.062,0.21,2.092,0.498,3.1,0.834c0.462-0.921,0.89-1.851,1.471-2.719   c-0.113-0.123-0.192-0.267-0.312-0.385c-1.141-1.139-2.402-2.066-3.715-2.879C43.006,34.774,42.771,36.319,42.771,37.934z" style="" fill="#0560af"></path><path d="M57.635,33.27c-1.314,0.812-2.575,1.74-3.718,2.879c-0.118,0.118-0.195,0.262-0.309,0.385   c0.579,0.868,1.007,1.798,1.469,2.719c1.008-0.336,2.038-0.624,3.099-0.834c0.004-0.166,0.052-0.318,0.052-0.484   C58.228,36.319,57.993,34.774,57.635,33.27z" style="" fill="#0560af"></path><path d="M63.063,42.771c-0.166,0-0.314,0.044-0.48,0.05c-0.209,1.06-0.498,2.095-0.838,3.102c0.921,0.463,1.851,0.888,2.719,1.471   c0.122-0.118,0.266-0.196,0.384-0.314c1.139-1.139,2.067-2.398,2.883-3.717C66.226,43.008,64.678,42.771,63.063,42.771z" style="" fill="#0560af"></path><path d="M48.074,49.493c-0.035,0.676-0.035,1.339,0,2.012c0.452,0.502,0.921,0.969,1.42,1.423c0.671,0.034,1.335,0.034,2.007,0   c0.5-0.454,0.972-0.926,1.423-1.423c0.035-0.673,0.033-1.336,0-2.008c-0.451-0.502-0.921-0.969-1.42-1.423   c-0.673-0.035-1.34-0.035-2.012,0C48.995,48.528,48.524,48.995,48.074,49.493z" style="" fill="#0560af"></path><path d="M64.464,53.608c-0.868,0.585-1.798,1.008-2.719,1.471c0.34,1.008,0.628,2.042,0.838,3.102   c0.166,0.004,0.314,0.048,0.48,0.048c1.615,0,3.163-0.234,4.668-0.59c-0.816-1.316-1.745-2.577-2.883-3.717   C64.73,53.805,64.586,53.726,64.464,53.608z" style="" fill="#0560af"></path><path d="M72.271,55.926c2.583-1.327,4.827-3.173,6.615-5.425c-1.788-2.252-4.031-4.098-6.615-5.425   c-1.091,1.929-2.357,3.784-3.998,5.425C69.914,52.142,71.179,53.996,72.271,55.926z" style="" fill="#0560af"></path><path d="M62.138,31.245c0.585,2.133,0.925,4.367,0.925,6.688c2.322,0,4.555,0.341,6.689,0.93c0.868-2.745,1.143-5.603,0.82-8.436   C67.74,30.104,64.879,30.375,62.138,31.245z" style="" fill="#0560af"></path><path d="M50.498,22.11c-2.253,1.794-4.099,4.033-5.424,6.616c1.927,1.096,3.782,2.361,5.424,4.002   c1.644-1.641,3.498-2.906,5.426-4.002C54.597,26.144,52.752,23.904,50.498,22.11z" style="" fill="#0560af"></path><path d="M37.931,37.934c0-2.321,0.34-4.556,0.927-6.688c-2.74-0.87-5.601-1.141-8.432-0.817c-0.323,2.833-0.05,5.69,0.817,8.436   C33.377,38.274,35.612,37.934,37.931,37.934z" style="" fill="#0560af"></path><path d="M22.108,50.501c1.794,2.252,4.034,4.098,6.618,5.425c1.091-1.93,2.356-3.784,3.999-5.425   c-1.643-1.641-2.908-3.496-4.001-5.425C26.143,46.403,23.902,48.249,22.108,50.501z" style="" fill="#0560af"></path><path d="M38.858,69.757c-0.587-2.133-0.927-4.367-0.927-6.688c-2.319,0-4.553-0.341-6.688-0.93   c-0.868,2.745-1.14,5.604-0.817,8.436C33.257,70.896,36.118,70.627,38.858,69.757z" style="" fill="#0560af"></path><path d="M50.498,78.891c2.255-1.793,4.1-4.032,5.426-6.616c-1.929-1.095-3.782-2.36-5.426-4c-1.642,1.64-3.497,2.905-5.424,4   C46.401,74.858,48.245,77.098,50.498,78.891z" style="" fill="#0560af"></path><path d="M63.063,63.068c0,2.321-0.34,4.556-0.925,6.688c2.741,0.87,5.602,1.139,8.435,0.817c0.323-2.832,0.048-5.695-0.82-8.436   C67.618,62.728,65.385,63.068,63.063,63.068z" style="" fill="#0560af"></path><path d="M87.425,44.026c-0.571,2.304-1.457,4.476-2.614,6.475c1.157,1.999,2.043,4.177,2.614,6.475   C88.844,52.771,88.844,48.231,87.425,44.026z" style="" fill="#0560af"></path><path d="M81.233,29.05c-1.981-4.041-5.244-7.301-9.286-9.282c1.249,2.063,2.147,4.268,2.745,6.541   C76.966,26.907,79.165,27.802,81.233,29.05z" style="" fill="#0560af"></path><path d="M56.971,13.576c-4.204-1.418-8.742-1.418-12.947,0c2.3,0.571,4.473,1.453,6.473,2.614   C52.5,15.029,54.671,14.147,56.971,13.576z" style="" fill="#0560af"></path><path d="M29.047,19.768c-4.042,1.981-7.301,5.241-9.284,9.282c2.066-1.248,4.268-2.143,6.541-2.741   C26.904,24.035,27.798,21.831,29.047,19.768z" style="" fill="#0560af"></path><path d="M13.571,56.973c0.574-2.3,1.458-4.473,2.616-6.472c-1.159-1.999-2.04-4.171-2.616-6.472   C12.158,48.231,12.158,52.771,13.571,56.973z" style="" fill="#0560af"></path><path d="M19.765,71.952c1.981,4.041,5.24,7.297,9.279,9.282c-1.248-2.068-2.141-4.269-2.741-6.542   C24.031,74.095,21.829,73.2,19.765,71.952z" style="" fill="#0560af"></path><path d="M44.024,87.426c4.205,1.418,8.746,1.418,12.947,0c-2.3-0.572-4.472-1.453-6.474-2.614   C48.498,85.973,46.324,86.854,44.024,87.426z" style="" fill="#0560af"></path><path d="M71.952,81.234c4.037-1.985,7.3-5.241,9.281-9.282c-2.068,1.248-4.267,2.143-6.541,2.74   C74.095,76.966,73.2,79.166,71.952,81.234z" style="" fill="#0560af"></path></g><desc>Created with Snap</desc><defs></defs></g><g><g transform="matrix(0.5,0,0,-0.5,0,0)"><path d="M1016 592Q1016 537 1005 468Q994 400 973 330Q953 260 924 194Q896 128 860 76Q825 25 784 -6Q744 -37 700 -37Q674 -37 649 -7Q625 24 602 73Q580 122 561 182Q542 242 526 301Q511 246 493 186Q475 126 449 76Q423 27 388 -5Q353 -37 305 -37Q274 -37 248 -8Q223 21 202 65Q182 110 165 164Q149 219 137 270Q126 322 118 364Q110 406 106 426Q105 429 103 441Q101 453 98 466Q95 479 90 489Q86 500 82 500Q65 500 42 489Q20 479 6 471L0 481Q14 496 34 512Q55 529 78 543Q102 557 126 566Q151 575 172 575Q190 575 204 559Q219 544 229 520Q239 496 246 466Q254 437 258 408Q263 380 265 357Q268 334 270 322Q271 314 275 289Q279 265 285 232Q291 200 298 164Q306 129 315 99Q324 70 333 50Q343 31 352 31Q380 31 404 66Q428 102 447 155Q467 208 482 268Q497 328 506 378Q496 418 489 449Q482 481 477 500Q475 504 475 514Q475 528 485 540Q495 552 510 561Q525 570 541 575Q557 580 569 580Q589 580 602 561Q615 543 623 518Q631 493 635 467Q640 442 643 428Q644 421 649 389Q655 357 664 313Q673 269 683 219Q694 170 705 128Q717 86 728 58Q739 31 748 31Q775 31 798 49Q821 68 839 98Q858 129 871 168Q885 208 894 251Q904 294 908 336Q913 379 913 416Q913 447 909 483Q905 520 896 556Q887 592 872 625Q858 659 838 683Q818 708 792 721Q766 734 733 730L731 739Q757 752 786 759Q815 766 846 766Q931 766 973 719Q1016 673 1016 592ZM1729 147L1737 143Q1711 105 1674 72Q1638 39 1594 15Q1551 -9 1503 -23Q1456 -37 1408 -37Q1340 -37 1281 -20Q1222 -2 1178 34Q1134 70 1109 124Q1084 179 1084 252Q1084 324 1110 386Q1137 449 1183 495Q1230 542 1293 569Q1356 596 1428 596Q1462 596 1491 586Q1521 577 1543 558Q1565 540 1577 513Q1590 486 1590 451Q1590 409 1573 377Q1556 345 1528 321Q1500 297 1464 281Q1429 265 1390 255Q1352 245 1314 240Q1277 236 1246 236L1222 236Q1235 145 1294 97Q1353 49 1457 49Q1531 49 1601 75Q1672 101 1729 147ZM1219 289L1219 266L1244 266Q1280 266 1318 277Q1356 289 1386 311Q1417 334 1437 367Q1457 400 1457 442Q1457 483 1439 510Q1422 537 1379 537Q1335 537 1304 510Q1274 484 1255 445Q1236 407 1227 364Q1219 322 1219 289ZM2359 1239Q2359 1170 2339 1102Q2320 1035 2286 971Q2252 908 2205 850Q2159 793 2105 744Q2051 696 1992 656Q1933 617 1874 591L1867 606Q1941 641 2008 705Q2076 770 2127 850Q2179 931 2209 1020Q2240 1109 2240 1194Q2240 1211 2237 1229Q2235 1247 2227 1262Q2220 1277 2207 1286Q2194 1296 2173 1296Q2114 1296 2064 1256Q2014 1216 1973 1149Q1933 1083 1902 997Q1871 911 1850 820Q1829 729 1818 640Q1808 551 1808 477Q1808 438 1812 390Q1817 343 1828 295Q1840 247 1858 201Q1877 156 1905 121Q1934 86 1973 64Q2012 43 2064 43Q2097 43 2120 56Q2144 69 2158 91Q2173 113 2180 141Q2187 169 2187 198Q2187 243 2174 293Q2162 343 2136 384Q2111 425 2072 452Q2033 479 1980 479Q1965 479 1949 476Q1934 474 1919 469L1913 479Q1950 507 1993 526Q2037 546 2085 546Q2136 546 2176 524Q2216 502 2243 467Q2271 432 2285 386Q2300 341 2300 295Q2300 226 2276 166Q2253 106 2211 61Q2169 17 2110 -8Q2052 -33 1982 -33Q1922 -33 1876 -12Q1831 10 1797 46Q1763 82 1740 129Q1717 177 1703 229Q1689 282 1683 335Q1677 388 1677 436Q1677 524 1692 628Q1708 732 1738 836Q1769 941 1815 1038Q1862 1136 1923 1211Q1985 1286 2062 1331Q2139 1376 2232 1376Q2297 1376 2328 1338Q2359 1301 2359 1239ZM3046 147L3052 143Q3030 106 3000 74Q2971 42 2935 18Q2900 -6 2859 -20Q2818 -33 2774 -33Q2709 -33 2659 -11Q2610 11 2574 48Q2538 86 2514 136Q2490 186 2476 240Q2462 295 2456 352Q2450 409 2450 461Q2450 509 2454 559Q2458 610 2466 663Q2435 662 2405 662Q2376 662 2347 662Q2328 662 2304 663Q2280 664 2259 671Q2238 678 2224 692Q2210 706 2210 733Q2210 748 2215 757Q2221 766 2230 770Q2240 775 2252 776Q2265 778 2278 778Q2293 778 2349 773Q2405 768 2484 762Q2509 880 2548 994Q2588 1108 2638 1202L2652 1202Q2620 1093 2595 982Q2571 871 2559 757Q2632 752 2709 748Q2787 745 2861 745Q2970 745 3038 747Q3106 749 3145 752Q3191 756 3214 760L3218 743Q3158 729 3081 716Q3004 704 2917 694Q2830 685 2737 678Q2644 671 2552 667Q2550 647 2550 626Q2550 606 2550 586Q2550 538 2554 480Q2559 422 2571 363Q2583 305 2603 249Q2624 194 2657 151Q2691 109 2738 83Q2785 57 2849 57Q2908 57 2955 83Q3003 109 3046 147ZM3759 147L3768 143Q3750 103 3722 71Q3695 39 3663 16Q3631 -6 3597 -19Q3563 -31 3532 -31Q3474 -31 3434 -11Q3394 9 3369 43Q3344 77 3333 123Q3322 169 3322 221Q3322 261 3328 304Q3334 347 3345 387Q3347 393 3349 401Q3351 410 3351 416Q3351 421 3345 424Q3328 430 3309 435Q3290 441 3271 448Q3253 455 3236 464Q3220 473 3208 487Q3207 427 3188 365Q3169 304 3137 247Q3106 191 3064 142Q3022 93 2975 57L2965 67Q2994 99 3018 143Q3042 187 3059 235Q3076 283 3085 332Q3095 381 3095 424Q3095 446 3091 465Q3087 485 3082 503Q3078 521 3074 537Q3070 554 3070 571Q3070 599 3088 615Q3106 631 3134 631Q3149 631 3157 622Q3165 614 3171 602Q3177 590 3185 577Q3193 564 3208 555Q3227 544 3256 539Q3285 534 3317 530Q3349 526 3381 522Q3413 518 3438 508Q3464 499 3480 482Q3496 466 3496 438Q3496 424 3493 410Q3491 397 3486 385Q3474 343 3465 299Q3457 256 3457 213Q3457 176 3462 145Q3468 115 3483 93Q3498 71 3523 59Q3548 47 3587 47Q3643 47 3685 74Q3727 102 3759 147ZM4347 -303Q4347 -360 4336 -417Q4325 -474 4303 -528Q4282 -581 4250 -628Q4218 -674 4177 -708Q4136 -742 4085 -762Q4035 -782 3976 -782Q3921 -782 3872 -760Q3823 -738 3786 -701Q3750 -664 3729 -615Q3708 -565 3708 -510Q3708 -450 3732 -395Q3757 -340 3797 -294Q3837 -248 3887 -213Q3938 -178 3991 -158L3997 -170Q3900 -223 3847 -313Q3794 -403 3794 -514Q3794 -559 3806 -601Q3819 -642 3844 -674Q3869 -706 3906 -726Q3944 -745 3993 -745Q4061 -745 4106 -708Q4151 -671 4178 -616Q4205 -560 4216 -495Q4228 -430 4228 -373Q4228 -312 4218 -253Q4209 -194 4195 -135Q4182 -76 4168 -17Q4154 42 4145 102Q4124 77 4100 54Q4076 32 4048 15Q4021 -1 3990 -11Q3959 -20 3925 -20Q3874 -20 3835 -2Q3797 17 3771 49Q3745 81 3731 123Q3718 165 3718 213Q3718 267 3733 319Q3748 371 3775 417Q3802 463 3839 503Q3876 543 3919 573L3931 567Q3888 505 3863 433Q3839 362 3839 287Q3839 255 3846 218Q3853 181 3868 150Q3884 119 3910 98Q3937 78 3976 78Q4023 78 4064 98Q4105 119 4139 151Q4136 188 4136 225Q4136 276 4143 331Q4150 386 4168 436Q4187 487 4219 528Q4251 570 4302 596L4310 592Q4286 567 4270 536Q4254 506 4244 473Q4235 440 4231 405Q4228 371 4228 338Q4228 246 4246 167Q4265 88 4287 12Q4310 -64 4328 -141Q4347 -217 4347 -303ZM5072 1239Q5072 1170 5052 1102Q5033 1035 4999 971Q4965 908 4918 850Q4872 793 4818 744Q4764 696 4705 656Q4646 617 4587 591L4580 606Q4654 641 4721 705Q4789 770 4840 850Q4892 931 4922 1020Q4953 1109 4953 1194Q4953 1211 4950 1229Q4948 1247 4940 1262Q4933 1277 4920 1286Q4907 1296 4886 1296Q4827 1296 4777 1256Q4727 1216 4686 1149Q4646 1083 4615 997Q4584 911 4563 820Q4542 729 4531 640Q4521 551 4521 477Q4521 438 4525 390Q4530 343 4541 295Q4553 247 4571 201Q4590 156 4618 121Q4647 86 4686 64Q4725 43 4777 43Q4810 43 4833 56Q4857 69 4871 91Q4886 113 4893 141Q4900 169 4900 198Q4900 243 4887 293Q4875 343 4849 384Q4824 425 4785 452Q4746 479 4693 479Q4678 479 4662 476Q4647 474 4632 469L4626 479Q4663 507 4706 526Q4750 546 4798 546Q4849 546 4889 524Q4929 502 4956 467Q4984 432 4998 386Q5013 341 5013 295Q5013 226 4989 166Q4966 106 4924 61Q4882 17 4823 -8Q4765 -33 4695 -33Q4635 -33 4589 -12Q4544 10 4510 46Q4476 82 4453 129Q4430 177 4416 229Q4402 282 4396 335Q4390 388 4390 436Q4390 524 4405 628Q4421 732 4451 836Q4482 941 4528 1038Q4575 1136 4636 1211Q4698 1286 4775 1331Q4852 1376 4945 1376Q5010 1376 5041 1338Q5072 1301 5072 1239ZM5733 147L5741 143Q5715 105 5678 72Q5642 39 5598 15Q5555 -9 5507 -23Q5460 -37 5412 -37Q5344 -37 5285 -20Q5226 -2 5182 34Q5138 70 5113 124Q5088 179 5088 252Q5088 324 5114 386Q5141 449 5187 495Q5234 542 5297 569Q5360 596 5432 596Q5466 596 5495 586Q5525 577 5547 558Q5569 540 5581 513Q5594 486 5594 451Q5594 409 5577 377Q5560 345 5532 321Q5504 297 5468 281Q5433 265 5394 255Q5356 245 5318 240Q5281 236 5250 236L5226 236Q5239 145 5298 97Q5357 49 5461 49Q5535 49 5605 75Q5676 101 5733 147ZM5223 289L5223 266L5248 266Q5284 266 5322 277Q5360 289 5390 311Q5421 334 5441 367Q5461 400 5461 442Q5461 483 5443 510Q5426 537 5383 537Q5339 537 5308 510Q5278 484 5259 445Q5240 407 5231 364Q5223 322 5223 289Z" style="" fill="#0560af"></path></g></g></g></svg>