<svg  version="1.1" xmlns="http://www.w3.org/2000/svg" viewBox="-2913.7948082377516 -1715.2000610351563 7764.834683459004 2918.4"><desc>Created with Snap</desc><defs></defs><g><g transform="matrix(25.6285,0,0,25.6285,-2734.7372,-1536.1424)"><g><path d="M78.4,66.5c-5.5,4.8-9.9,15.2-9.9,15.2s-6.9-11.4-12.9-15.3c-9.5-6.1-13.6-6.2-13.6-6.2V65c0,0,7.8,1.2,11.7,4.6   c8.2,7.1,14.8,18.5,14.8,18.5S74.4,75,80.1,70.5C88.1,64.3,95,65,95,65v-4.8C95,60.1,85.1,60.7,78.4,66.5z" style="" fill="#bbe5e8"></path><path d="M42,80c-6.4-3.6-17.8-4.3-17.8-4.3s8.7-10.1,10.5-17C37.5,47.9,36.2,44,36.2,44l-4.6,1.6c0,0,1.3,7.7-0.6,12.4   c-4.1,9.9-13,19.8-13,19.8s14.6,1.3,20.7,5.1c8.6,5.4,10.2,12,10.2,12l4.6-1.6C53.5,93.4,49.7,84.4,42,80z" style="" fill="#bbe5e8"></path><path d="M35.3,36.8c11.3-0.9,14.6-3.4,14.6-3.4l-3-3.8c0,0-6.9,3.7-12.1,3.4c-10.9-0.6-23.3-5.6-23.3-5.6s3.5,14,1.8,20.9   C10.9,58.2,5,61.8,5,61.8l3,3.8c0,0,7.5-6.5,9.1-15.1c1.3-7.1-1.7-18-1.7-18S28,37.4,35.3,36.8z" style="" fill="#bbe5e8"></path><path d="M37.4,17.8c7.3-1.1,16.7-7.4,16.7-7.4s-0.6,13.2,2.4,19.8c4.6,10.2,8,12.5,8,12.5l2.7-4c0,0-5.9-5.2-7.3-10.2   C56.9,18.2,57.7,5,57.7,5s-12.3,7.8-19.5,8.5c-10.2,1-15.6-3.3-15.6-3.3l-2.7,4.1C19.9,14.2,28.6,19.1,37.4,17.8z" style="" fill="#bbe5e8"></path><path d="M65,60.5c0,0,3.1-7.2,7.4-10.1c9-6.1,21.9-9.7,21.9-9.7s-11.5-8.9-14.5-15.4c-4.2-9.1-1.9-15.6-1.9-15.6l-4.8-1.2   c0,0-1.9,9.6,2.2,17.4c3.4,6.4,12.5,13.2,12.5,13.2S75,42.9,69.6,47.8c-8.3,7.6-9.4,11.5-9.4,11.5L65,60.5z" style="" fill="#bbe5e8"></path></g><desc>Created with Snap</desc><defs></defs></g><g><g transform="matrix(1.024,0,0,-1.024,0,0)"><path d="M389 458L352 458L352 476L610 476L610 458L569 458L659 121L748 458L679 458L679 476L814 476L814 458L772 458L652 0L515 0L428 307L334 0L200 0L52 458L7 458L7 476L310 476L310 458L250 458L342 118L414 352L389 458ZM1107 -10Q978 -10 913 56Q849 123 849 241Q849 360 921 423Q994 486 1106 486Q1333 486 1324 258L1042 258L1042 219Q1042 121 1067 71Q1092 21 1154 21Q1270 21 1306 145L1324 142Q1305 70 1255 30Q1206 -10 1107 -10ZM1043 327L1043 278L1146 278L1146 327Q1146 408 1136 437Q1127 467 1098 467Q1070 467 1056 435Q1043 404 1043 327ZM1725 269Q1725 372 1715 407Q1705 443 1676 443Q1647 443 1624 407Q1601 371 1601 308L1601 122Q1601 79 1618 49Q1636 19 1668 19Q1701 19 1713 63Q1725 107 1725 217L1725 269ZM1360 750L1601 750L1601 400Q1639 486 1731 486Q1918 486 1918 237Q1918 110 1866 50Q1815 -10 1712 -10Q1660 -10 1632 6Q1605 22 1595 59L1588 0L1360 0L1360 18L1415 18L1415 732L1360 732L1360 750ZM1998 143L1998 458L1943 458L1943 476L1998 476L1998 605L2184 651L2184 476L2314 476L2314 458L2184 458L2184 121Q2184 74 2193 52Q2203 30 2233 30Q2263 30 2285 60Q2308 90 2315 142L2332 140Q2324 71 2288 30Q2252 -10 2169 -10Q2086 -10 2042 23Q1998 56 1998 143ZM2676 448Q2639 448 2611 400Q2583 352 2583 286L2583 18L2654 18L2654 0L2342 0L2342 18L2397 18L2397 458L2342 458L2342 476L2583 476L2583 380Q2596 431 2633 458Q2670 486 2717 486Q2764 486 2793 459Q2823 433 2823 384Q2823 336 2801 310Q2779 284 2733 284Q2688 284 2666 314Q2645 344 2661 397L2697 397Q2722 448 2676 448ZM2873 458L2832 458L2832 476L3122 476L3122 458L3068 458L3177 126L3293 458L3226 458L3226 476L3367 476L3367 458L3317 458L3130 -81Q3097 -175 3056 -213Q3015 -250 2956 -250Q2897 -250 2863 -223Q2829 -196 2829 -154Q2829 -112 2851 -90Q2873 -68 2909 -68Q2992 -68 2992 -137Q2992 -152 2986 -173L2951 -173Q2943 -196 2949 -211Q2955 -226 2976 -226Q3017 -226 3049 -186Q3081 -145 3110 -62L3132 0L3044 0L2873 458ZM3734 269Q3734 372 3724 407Q3714 443 3685 443Q3656 443 3633 407Q3610 371 3610 308L3610 122Q3610 79 3627 49Q3645 19 3677 19Q3710 19 3722 63Q3734 107 3734 217L3734 269ZM3369 750L3610 750L3610 400Q3648 486 3740 486Q3927 486 3927 237Q3927 110 3875 50Q3824 -10 3721 -10Q3669 -10 3641 6Q3614 22 3604 59L3597 0L3369 0L3369 18L3424 18L3424 732L3369 732L3369 750ZM4220 -10Q4091 -10 4026 56Q3962 123 3962 241Q3962 360 4034 423Q4107 486 4219 486Q4446 486 4437 258L4155 258L4155 219Q4155 121 4180 71Q4205 21 4267 21Q4383 21 4419 145L4437 142Q4418 70 4368 30Q4319 -10 4220 -10ZM4156 327L4156 278L4259 278L4259 327Q4259 408 4249 437Q4240 467 4211 467Q4183 467 4169 435Q4156 404 4156 327Z" style="" fill="#0560af"></path></g></g></g></svg>